<svg width="1440" height="514" viewBox="0 0 1440 514" fill="none" xmlns="http://www.w3.org/2000/svg" xmlns:xlink="http://www.w3.org/1999/xlink">
<path d="M493.047 191.231L128.865 308.82V635.456L1465.39 621.203V57.0129L1349.94 0L1140.48 157.973L990.523 125.903L915.545 157.973L844.137 191.231H806.052L762.017 157.973L564.455 243.493L493.047 191.231Z" fill="url(#paint0_linear_6412_4727)"/>
<path d="M1457.06 52.2618L1349.94 0L1140.48 157.973L990.524 125.903L916.735 157.973L844.137 191.231H806.053L762.018 157.973L564.455 243.493L493.047 191.231L127.676 308.82V348.016L468.054 313.571L412.118 376.523L557.315 331.387L548.984 406.217L656.096 283.877L678.708 304.069L758.447 230.427L740.595 283.877L827.475 243.493V257.746L871.51 219.737L865.56 243.493L945.299 224.488L981.003 214.986L939.348 257.746L1091.69 198.357L1079.78 230.427L1129.77 191.231L1122.63 237.554V257.746L1209.51 178.165L1220.22 191.231L1252.35 178.165L1260.68 198.357L1309.48 73.6417L1317.81 91.4582L1355.9 43.9474L1488 155.598L1457.06 52.2618Z" fill="#83A3FC"/>
<path d="M1204.75 214.986L1242.83 206.671L1228.55 236.366L1204.75 264.872L1150 271.999L1204.75 214.986Z" fill="#83A3FC"/>
<path d="M1066.69 268.435L1107.16 236.366L1055.98 306.444L952.439 367.02L963.15 299.317H929.826L1066.69 236.366V268.435Z" fill="#83A3FC"/>
<path d="M816.763 286.252L865.559 281.501L832.235 314.758L790.58 318.322L663.236 409.78L713.222 348.016H657.285L751.306 314.758L816.763 286.252Z" fill="#83A3FC"/>
<path d="M902.453 247.056L941.728 232.802L896.502 268.435L902.453 247.056Z" fill="#83A3FC"/>
<path d="M1310.67 117.589L1342.8 85.519L1324.95 125.903V142.532L1342.8 148.471L1316.62 174.602L1299.96 201.92L1310.67 117.589Z" fill="#83A3FC"/>
<path d="M350.188 373.619L-0.859375 276.75V799.368H1455.87V600.845L1138.25 574.534L919.743 495.603L769.295 421.456H684.518L597.353 460.922H511.383L434.964 421.456L350.188 373.619Z" fill="#09005E"/>
<path d="M207.414 463.23L-8 445.413V798.18H1454.68V730.478L1267.82 668.714H1066.69L1013.14 654.46H883.411L707.271 586.758L433.54 553.5L328.808 586.758L207.414 463.23Z" fill="url(#paint1_linear_6412_4727)"/>
<path d="M926.256 168.663H891.742L942.918 143.72L990.523 125.903L1004.8 128.279L984.572 146.096L926.256 168.663Z" fill="#C8D6FF"/>
<path d="M629.912 214.986L760.827 157.973L746.545 199.545L646.574 224.488L629.912 214.986Z" fill="#C8D6FF"/>
<path d="M365.702 231.615L493.047 191.231L506.138 200.733L463.293 216.174L365.702 231.615Z" fill="#C8D6FF"/>
<path d="M1328.52 48.6985L1349.94 0L1263.06 65.3273L1258.3 77.205L1323.76 38.0086L1328.52 48.6985Z" fill="#C8D6FF"/>
<path d="M143.147 473.919L207.415 463.229L328.809 586.757L433.54 554.688L527.561 564.19L566.836 567.753L620.392 576.067L706.081 586.757L650.145 611.701H458.533L347.851 636.644H271.682L207.415 522.618L143.147 473.919Z" fill="url(#paint2_linear_6412_4727)"/>
<path d="M115.775 346.828L0.331442 336.138H-2.04883V275.562L350.231 372.959L512.09 462.041L376.414 432.347L325.238 457.29L216.936 378.897L175.281 386.024L115.775 346.828Z" fill="url(#paint3_linear_6412_4727)"/>
<mask id="mask0_6412_4727" style="mask-type:alpha" maskUnits="userSpaceOnUse" x="-8" y="0" width="1497" height="800">
<path d="M493.047 191.231L128.865 308.82V635.456L1465.39 621.203V57.0129L1349.94 0L1140.48 157.973L990.523 125.903L915.545 157.973L844.137 191.231H806.052L762.017 157.973L564.455 243.493L493.047 191.231Z" fill="url(#paint4_linear_6412_4727)"/>
<path d="M1457.06 52.2618L1349.94 0L1140.48 157.973L990.524 125.903L916.735 157.973L844.137 191.231H806.053L762.018 157.973L564.455 243.493L493.047 191.231L127.676 308.82V348.016L468.054 313.571L412.118 376.523L557.315 331.387L548.984 406.217L656.096 283.877L678.708 304.069L758.447 230.427L740.595 283.877L827.475 243.493V257.746L871.51 219.737L865.56 243.493L945.299 224.488L981.003 214.986L939.348 257.746L1091.69 198.357L1079.78 230.427L1129.77 191.231L1122.63 237.554V257.746L1209.51 178.165L1220.22 191.231L1252.35 178.165L1260.68 198.357L1309.48 73.6417L1317.81 91.4582L1355.9 43.9474L1488 155.598L1457.06 52.2618Z" fill="#A955CD"/>
<path d="M1204.75 214.986L1242.83 206.671L1228.55 236.366L1204.75 264.872L1150 271.999L1204.75 214.986Z" fill="#A955CD"/>
<path d="M1066.69 268.435L1107.16 236.366L1055.98 306.444L952.439 367.02L963.15 299.317H929.826L1066.69 236.366V268.435Z" fill="#A955CD"/>
<path d="M816.763 286.252L865.559 281.501L832.235 314.758L790.58 318.322L663.236 409.78L713.222 348.016H657.285L751.306 314.758L816.763 286.252Z" fill="#A955CD"/>
<path d="M902.453 247.056L941.728 232.802L896.502 268.435L902.453 247.056Z" fill="#A955CD"/>
<path d="M1310.67 117.589L1342.8 85.519L1324.95 125.903V142.532L1342.8 148.471L1316.62 174.602L1299.96 201.92L1310.67 117.589Z" fill="#A955CD"/>
<path d="M350.188 373.619L-0.859375 276.75V799.368H1455.87V600.845L1138.25 574.534L919.743 495.603L769.295 421.456H684.518L597.353 460.922H511.383L434.964 421.456L350.188 373.619Z" fill="#42005E"/>
<path d="M207.414 463.23L-8 445.413V798.18H1454.68V730.478L1267.82 668.714H1066.69L1013.14 654.46H883.411L707.271 586.758L433.54 553.5L328.808 586.758L207.414 463.23Z" fill="url(#paint5_linear_6412_4727)"/>
<path d="M926.256 168.663H891.742L942.918 143.72L990.523 125.903L1004.8 128.279L984.572 146.096L926.256 168.663Z" fill="#D09CE6"/>
<path d="M629.912 214.986L760.827 157.973L746.545 199.545L646.574 224.488L629.912 214.986Z" fill="#D09CE6"/>
<path d="M365.702 231.615L493.047 191.231L506.138 200.733L463.293 216.174L365.702 231.615Z" fill="#D09CE6"/>
<path d="M1328.52 48.6985L1349.94 0L1263.06 65.3273L1258.3 77.205L1323.76 38.0086L1328.52 48.6985Z" fill="#D09CE6"/>
<path d="M143.147 473.919L207.415 463.229L328.809 586.757L433.54 554.688L527.561 564.19L566.836 567.753L620.392 576.067L706.081 586.757L650.145 611.701H458.533L347.851 636.644H271.682L207.415 522.618L143.147 473.919Z" fill="url(#paint6_linear_6412_4727)"/>
<path d="M115.775 346.828L0.331442 336.138H-2.04883V275.562L350.231 372.959L512.09 462.041L376.414 432.347L325.238 457.29L216.936 378.897L175.281 386.024L115.775 346.828Z" fill="url(#paint7_linear_6412_4727)"/>
</mask>
<g mask="url(#mask0_6412_4727)">
<g opacity="0.5" filter="url(#filter0_f_6412_4727)">
<use xlink:href="#stroke0_6412_4727" transform="matrix(0.313302 -0.0500618 -0.0502397 -0.313279 1314.99 254.74)"/>
<use xlink:href="#stroke0_6412_4727" transform="matrix(0.293398 0.120967 0.120828 -0.293286 1325.32 233.287)"/>
<use xlink:href="#stroke0_6412_4727" transform="matrix(0.313946 0.046206 0.0460433 -0.313871 1378.16 254.914)"/>
<use xlink:href="#stroke0_6412_4727" transform="matrix(0.255654 -0.187775 -0.187944 -0.255715 1475.39 287.23)"/>
<use xlink:href="#stroke0_6412_4727" transform="matrix(0.196644 -0.248878 -0.249025 -0.196747 1539.29 289.428)"/>
<use xlink:href="#stroke0_6412_4727" transform="matrix(0.265486 -0.173607 -0.173779 -0.265537 1555.03 292.758)"/>
<use xlink:href="#stroke0_6412_4727" transform="matrix(0.314803 -0.0395868 -0.0397638 -0.314774 1562.73 281.848)"/>
<use xlink:href="#stroke0_6412_4727" transform="matrix(0.316252 0.0259821 0.0258149 -0.316188 1591.86 272.645)"/>
<use xlink:href="#stroke0_6412_4727" transform="matrix(0.232735 0.215768 0.215677 -0.232581 1611.41 224.177)"/>
<use xlink:href="#stroke0_6412_4727" transform="matrix(0.315768 0.0313552 0.031189 -0.3157 1675.01 268.448)"/>
<use xlink:href="#stroke0_6412_4727" transform="matrix(-0.0780887 -0.307538 -0.307545 0.0779095 1845.99 234.783)"/>
<use xlink:href="#stroke0_6412_4727" transform="matrix(-0.247523 -0.198633 -0.198531 0.247375 1818.68 175.464)"/>
<use xlink:href="#stroke0_6412_4727" transform="matrix(-0.294485 -0.118295 -0.118154 0.294374 1768.98 152.993)"/>
<use xlink:href="#stroke0_6412_4727" transform="matrix(-0.304101 0.0904009 0.0905803 0.304101 1688.06 114.59)"/>
<use xlink:href="#stroke0_6412_4727" transform="matrix(-0.308453 -0.0745779 -0.0744227 0.308363 1678.7 139.878)"/>
<use xlink:href="#stroke0_6412_4727" transform="matrix(-0.301407 0.0989957 0.099175 0.301413 1601.8 109.374)"/>
<use xlink:href="#stroke0_6412_4727" transform="matrix(-0.303862 0.091197 0.0913764 0.303863 1561.64 107.925)"/>
<use xlink:href="#stroke0_6412_4727" transform="matrix(-0.184243 0.258193 0.258334 0.184353 1466.83 100.379)"/>
<use xlink:href="#stroke0_6412_4727" transform="matrix(-0.313388 -0.049863 -0.0497012 0.31331 1506.46 125.54)"/>
<use xlink:href="#stroke0_6412_4727" transform="matrix(-0.297831 -0.109591 -0.109447 0.297724 1473.32 136.469)"/>
<use xlink:href="#stroke0_6412_4727" transform="matrix(-0.212227 0.235732 0.235885 0.212321 1349.73 92.0088)"/>
<use xlink:href="#stroke0_6412_4727" transform="matrix(-0.317134 -0.0105623 -0.0103921 0.317077 1373.25 111.404)"/>
<use xlink:href="#stroke0_6412_4727" transform="matrix(-0.27465 -0.159023 -0.1589 0.27452 1352.73 142.729)"/>
<use xlink:href="#stroke0_6412_4727" transform="matrix(-0.24742 0.198493 0.198659 0.247488 1236.73 84.9581)"/>
<use xlink:href="#stroke0_6412_4727" transform="matrix(-0.229376 -0.219334 -0.219245 0.229221 1272.55 157.487)"/>
<use xlink:href="#stroke0_6412_4727" transform="matrix(-0.293983 0.11922 0.119398 0.294001 1175.87 85.2359)"/>
<use xlink:href="#stroke0_6412_4727" transform="matrix(-0.306032 -0.0839773 -0.083825 0.305937 1175.19 115.497)"/>
<use xlink:href="#stroke0_6412_4727" transform="matrix(-0.299115 0.105709 0.105888 0.299124 1095.16 82.6268)"/>
<use xlink:href="#stroke0_6412_4727" transform="matrix(-0.273843 0.160113 0.160287 0.273886 1038.21 76.501)"/>
<use xlink:href="#stroke0_6412_4727" transform="matrix(-0.288325 -0.132614 -0.132479 0.288207 1055.34 122)"/>
<use xlink:href="#stroke0_6412_4727" transform="matrix(-0.316946 0.0149029 0.0150771 0.316903 989.505 90.106)"/>
<use xlink:href="#stroke0_6412_4727" transform="matrix(-0.316756 -0.018808 -0.0186394 0.316695 953.916 95.2266)"/>
<use xlink:href="#stroke0_6412_4727" transform="matrix(-0.30895 -0.0724856 -0.0723298 0.308862 920.888 106.005)"/>
<use xlink:href="#stroke0_6412_4727" transform="matrix(-0.223725 -0.225094 -0.225009 0.223567 893.912 150.502)"/>
<use xlink:href="#stroke0_6412_4727" transform="matrix(-0.13918 0.285029 0.285151 0.139312 738.76 84.3935)"/>
<use xlink:href="#stroke0_6412_4727" transform="matrix(-0.234213 -0.214163 -0.21407 0.23406 809.858 155.842)"/>
<use xlink:href="#stroke0_6412_4727" transform="matrix(-0.317252 0.00559443 0.00576728 0.317204 739.565 107.441)"/>
<use xlink:href="#stroke0_6412_4727" transform="matrix(-0.20363 0.243195 0.243345 0.203729 632.455 94.7637)"/>
<use xlink:href="#stroke0_6412_4727" transform="matrix(-0.272358 -0.16292 -0.162799 0.272226 681.281 157.246)"/>
<use xlink:href="#stroke0_6412_4727" transform="matrix(-0.270162 -0.166537 -0.166417 0.270028 640.201 166.076)"/>
<use xlink:href="#stroke0_6412_4727" transform="matrix(-0.314422 0.0424961 0.0426734 0.314394 566.49 132.647)"/>
<use xlink:href="#stroke0_6412_4727" transform="matrix(-0.312143 -0.0571593 -0.0569993 0.312062 545.889 164.523)"/>
<use xlink:href="#stroke0_6412_4727" transform="matrix(-0.316846 0.0168755 0.0170499 0.316804 493.656 167.643)"/>
<use xlink:href="#stroke0_6412_4727" transform="matrix(-0.301594 -0.0987526 -0.098605 0.301492 474.336 205.852)"/>
<use xlink:href="#stroke0_6412_4727" transform="matrix(-0.255686 0.187732 0.187901 0.255746 372.085 182.106)"/>
<use xlink:href="#stroke0_6412_4727" transform="matrix(-0.272739 -0.162281 -0.162159 0.272607 404.242 255.269)"/>
<use xlink:href="#stroke0_6412_4727" transform="matrix(-0.218718 0.229724 0.229879 0.218807 280.721 216.403)"/>
<use xlink:href="#stroke0_6412_4727" transform="matrix(-0.2726 0.162219 0.162393 0.272644 264.521 234.636)"/>
<use xlink:href="#stroke0_6412_4727" transform="matrix(-0.268765 0.16849 0.168663 0.268814 224.199 251.441)"/>
<use xlink:href="#stroke0_6412_4727" transform="matrix(-0.273819 -0.160451 -0.160328 0.273688 249.844 322.411)"/>
<use xlink:href="#stroke0_6412_4727" transform="matrix(-0.0996451 0.30115 0.301252 0.0997923 90.4957 289.874)"/>
<use xlink:href="#stroke0_6412_4727" transform="matrix(-0.268772 0.168479 0.168652 0.26882 103.537 286.953)"/>
<use xlink:href="#stroke0_6412_4727" transform="matrix(-0.309571 0.0694485 0.0696275 0.309559 88.0501 290.223)"/>
<use xlink:href="#stroke0_6412_4727" transform="matrix(-0.153018 -0.278009 -0.27797 0.152843 88.2196 368.38)"/>
<use xlink:href="#stroke0_6412_4727" transform="matrix(-0.316769 -0.0185984 -0.0184297 0.316708 25.6928 279.536)"/>
<use xlink:href="#stroke0_6412_4727" transform="matrix(-0.193407 -0.251611 -0.251547 0.193239 11.9949 324.801)"/>
<use xlink:href="#stroke0_6412_4727" transform="matrix(-0.248075 -0.197943 -0.197841 0.247928 -24.9655 282.967)"/>
<use xlink:href="#stroke0_6412_4727" transform="matrix(-0.310722 0.0641187 0.0642974 0.310706 -100.022 202.57)"/>
<use xlink:href="#stroke0_6412_4727" transform="matrix(-0.310222 -0.0668253 -0.0666679 0.310136 -108.684 200.027)"/>
<use xlink:href="#stroke0_6412_4727" transform="matrix(-0.0727625 -0.308839 -0.308849 0.0725834 -134.485 260.255)"/>
<use xlink:href="#stroke0_6412_4727" transform="matrix(-0.28373 -0.142186 -0.142055 0.283607 -160.867 161.379)"/>
<use xlink:href="#stroke0_6412_4727" transform="matrix(-0.164753 -0.271226 -0.27118 0.164579 -186.274 177.218)"/>
<use xlink:href="#stroke0_6412_4727" transform="matrix(0.0891421 0.304525 0.304525 -0.0889628 -305.52 145.667)"/>
<use xlink:href="#stroke0_6412_4727" transform="matrix(0.111681 0.297013 0.297001 -0.111502 -269.361 168.198)"/>
<use xlink:href="#stroke0_6412_4727" transform="matrix(0.0795585 0.307162 0.307168 -0.0793792 -226.269 174.592)"/>
<use xlink:href="#stroke0_6412_4727" transform="matrix(0.104241 0.299701 0.299693 -0.104062 -189.056 194.023)"/>
<use xlink:href="#stroke0_6412_4727" transform="matrix(0.233912 -0.214239 -0.2144 -0.23399 -71.1881 319.017)"/>
<use xlink:href="#stroke0_6412_4727" transform="matrix(0.31549 0.0340528 0.0338873 -0.315421 -92.7606 304.353)"/>
<use xlink:href="#stroke0_6412_4727" transform="matrix(0.298936 0.106537 0.106392 -0.29883 -63.3386 299.894)"/>
<use xlink:href="#stroke0_6412_4727" transform="matrix(0.309394 0.0705652 0.0704088 -0.309306 -17.0522 317.265)"/>
<use xlink:href="#stroke0_6412_4727" transform="matrix(0.218034 0.230609 0.230528 -0.217874 8.78336 280.356)"/>
<use xlink:href="#stroke0_6412_4727" transform="matrix(0.278228 -0.152373 -0.152548 -0.278266 114.598 362.454)"/>
<use xlink:href="#stroke0_6412_4727" transform="matrix(0.26941 0.16775 0.167631 -0.269276 96.0329 309.579)"/>
<use xlink:href="#stroke0_6412_4727" transform="matrix(0.30673 0.0813863 0.0812331 -0.306637 148.48 333.916)"/>
<use xlink:href="#stroke0_6412_4727" transform="matrix(0.315375 -0.0347633 -0.0349399 -0.315343 211.619 357.178)"/>
<use xlink:href="#stroke0_6412_4727" transform="matrix(0.306841 0.0809639 0.0808106 -0.306748 232.743 335.914)"/>
<use xlink:href="#stroke0_6412_4727" transform="matrix(0.168911 -0.268475 -0.26861 -0.169029 365.952 365.578)"/>
<use xlink:href="#stroke0_6412_4727" transform="matrix(0.310454 -0.065398 -0.0655767 -0.31044 344.314 353.363)"/>
<use xlink:href="#stroke0_6412_4727" transform="matrix(0.273265 -0.161096 -0.16127 -0.273309 410.862 356.294)"/>
<use xlink:href="#stroke0_6412_4727" transform="matrix(0.206177 -0.241041 -0.241191 -0.206274 479.362 350.242)"/>
<use xlink:href="#stroke0_6412_4727" transform="matrix(0.271832 -0.1635 -0.163674 -0.271878 493.978 339.567)"/>
<use xlink:href="#stroke0_6412_4727" transform="matrix(0.258796 -0.183424 -0.183594 -0.258854 537.807 321.964)"/>
<use xlink:href="#stroke0_6412_4727" transform="matrix(0.0399354 -0.314709 -0.314781 -0.0400996 633.655 276.065)"/>
<use xlink:href="#stroke0_6412_4727" transform="matrix(0.302674 -0.0950583 -0.0952376 -0.302677 575.507 259.2)"/>
<use xlink:href="#stroke0_6412_4727" transform="matrix(-0.107129 -0.298683 -0.298673 0.10695 680.256 179.101)"/>
<use xlink:href="#stroke0_6412_4727" transform="matrix(-0.198096 0.247724 0.247871 0.198198 548.479 71.9824)"/>
<use xlink:href="#stroke0_6412_4727" transform="matrix(-0.300313 0.102262 0.102441 0.30032 554.61 91.6317)"/>
<use xlink:href="#stroke0_6412_4727" transform="matrix(-0.306446 -0.0824491 -0.0822963 0.306352 552.909 138.841)"/>
<use xlink:href="#stroke0_6412_4727" transform="matrix(-0.307106 -0.079951 -0.0797974 0.307014 514.5 156.392)"/>
<use xlink:href="#stroke0_6412_4727" transform="matrix(-0.306579 0.0816225 0.0818018 0.306574 447.223 150.969)"/>
<use xlink:href="#stroke0_6412_4727" transform="matrix(-0.190244 0.253804 0.253948 0.190351 361.932 171.375)"/>
<use xlink:href="#stroke0_6412_4727" transform="matrix(-0.00173507 0.317248 0.3173 0.00190674 288.001 227.032)"/>
<use xlink:href="#stroke0_6412_4727" transform="matrix(-0.105234 0.29924 0.299345 0.10538 291.664 248.114)"/>
<use xlink:href="#stroke0_6412_4727" transform="matrix(0.118691 0.294286 0.294269 -0.118512 245.884 333.524)"/>
<use xlink:href="#stroke0_6412_4727" transform="matrix(-0.202447 0.244181 0.24433 0.202547 306.29 321.747)"/>
<use xlink:href="#stroke0_6412_4727" transform="matrix(-0.289544 0.129615 0.129793 0.289568 334.882 365.58)"/>
<use xlink:href="#stroke0_6412_4727" transform="matrix(0.0378263 0.315011 0.315042 -0.0376495 219.088 430.999)"/>
<use xlink:href="#stroke0_6412_4727" transform="matrix(-0.0674144 0.309974 0.31006 0.0675716 200.769 430.978)"/>
<use xlink:href="#stroke0_6412_4727" transform="matrix(-0.219083 0.229375 0.229531 0.219173 202.513 429.369)"/>
<use xlink:href="#stroke0_6412_4727" transform="matrix(-0.317303 0.000612392 0.000784472 0.317253 222.867 460.101)"/>
<use xlink:href="#stroke0_6412_4727" transform="matrix(-0.265924 0.172936 0.173108 0.265975 139.513 449.624)"/>
<use xlink:href="#stroke0_6412_4727" transform="matrix(-0.21853 -0.23014 -0.230058 0.21837 168.075 534.373)"/>
<use xlink:href="#stroke0_6412_4727" transform="matrix(-0.315913 0.0295065 0.0296824 0.315878 92.3845 475.182)"/>
<use xlink:href="#stroke0_6412_4727" transform="matrix(-0.148497 -0.280447 -0.280412 0.148321 81.9147 559.688)"/>
<use xlink:href="#stroke0_6412_4727" transform="matrix(-0.305167 -0.0870702 -0.0869188 0.305071 29.6338 489.12)"/>
<use xlink:href="#stroke0_6412_4727" transform="matrix(0.100175 -0.300974 -0.301076 -0.100322 -34.0297 584.612)"/>
<use xlink:href="#stroke0_6412_4727" transform="matrix(0.227475 -0.221059 -0.221218 -0.227558 -62.7602 561.537)"/>
<use xlink:href="#stroke0_6412_4727" transform="matrix(0.239821 0.207866 0.207769 -0.239669 -107.573 479.556)"/>
<use xlink:href="#stroke0_6412_4727" transform="matrix(0.178852 -0.261956 -0.262095 -0.178966 35.646 542.558)"/>
<use xlink:href="#stroke0_6412_4727" transform="matrix(0.247771 -0.198054 -0.198221 -0.247839 53.6401 544.124)"/>
<use xlink:href="#stroke0_6412_4727" transform="matrix(0.298144 0.108737 0.108593 -0.298037 27.6885 503.206)"/>
<use xlink:href="#stroke0_6412_4727" transform="matrix(0.211135 -0.236711 -0.236863 -0.211229 151.456 548.314)"/>
<use xlink:href="#stroke0_6412_4727" transform="matrix(0.240408 -0.206926 -0.20709 -0.240481 182.58 553.563)"/>
<use xlink:href="#stroke0_6412_4727" transform="matrix(0.31184 0.0587924 0.0586328 -0.311758 160.57 528.491)"/>
<use xlink:href="#stroke0_6412_4727" transform="matrix(0.240938 -0.206309 -0.206473 -0.241011 265.526 567.132)"/>
<use xlink:href="#stroke0_6412_4727" transform="matrix(0.285739 0.138102 0.137969 -0.285618 232.568 524.795)"/>
<use xlink:href="#stroke0_6412_4727" transform="matrix(0.313114 0.0515604 0.051399 -0.313035 286.166 552.287)"/>
<use xlink:href="#stroke0_6412_4727" transform="matrix(0.285598 -0.138083 -0.13826 -0.285627 369.394 584.261)"/>
<use xlink:href="#stroke0_6412_4727" transform="matrix(0.317273 -0.00425188 -0.00442453 -0.317225 380.136 569.28)"/>
<use xlink:href="#stroke0_6412_4727" transform="matrix(0.223048 0.225765 0.225681 -0.22289 393.696 512.617)"/>
<use xlink:href="#stroke0_6412_4727" transform="matrix(0.294337 -0.118344 -0.118522 -0.294354 490.41 584.881)"/>
<use xlink:href="#stroke0_6412_4727" transform="matrix(0.220448 0.228304 0.228221 -0.220288 477.879 510.203)"/>
<use xlink:href="#stroke0_6412_4727" transform="matrix(0.141393 -0.283938 -0.28406 -0.141524 632.659 579.257)"/>
<use xlink:href="#stroke0_6412_4727" transform="matrix(0.30356 -0.092196 -0.0923753 -0.303562 609.783 573.576)"/>
<use xlink:href="#stroke0_6412_4727" transform="matrix(0.210438 0.237558 0.237482 -0.210276 603.382 493.325)"/>
<use xlink:href="#stroke0_6412_4727" transform="matrix(0.152818 -0.277953 -0.27808 -0.152944 754.479 561.986)"/>
<use xlink:href="#stroke0_6412_4727" transform="matrix(0.0768013 -0.307778 -0.307869 -0.0769558 813.673 540.801)"/>
<use xlink:href="#stroke0_6412_4727" transform="matrix(0.0982482 -0.301609 -0.301711 -0.0983959 847.882 528.202)"/>
<use xlink:href="#stroke0_6412_4727" transform="matrix(0.273708 -0.160344 -0.160518 -0.273751 828.636 519.831)"/>
<use xlink:href="#stroke0_6412_4727" transform="matrix(0.217435 -0.230938 -0.231093 -0.217525 889.022 501.088)"/>
<use xlink:href="#stroke0_6412_4727" transform="matrix(0.0675749 -0.309939 -0.310025 -0.0677321 965.596 463.303)"/>
<use xlink:href="#stroke0_6412_4727" transform="matrix(0.305007 0.0876322 0.0874809 -0.30491 881.423 415.934)"/>
<use xlink:href="#stroke0_6412_4727" transform="matrix(0.259718 -0.182117 -0.182287 -0.259775 967.056 420.274)"/>
<use xlink:href="#stroke0_6412_4727" transform="matrix(-0.180803 0.260614 0.260754 0.180915 919.516 247.584)"/>
<use xlink:href="#stroke0_6412_4727" transform="matrix(-0.315239 0.0359691 0.0361457 0.315208 943.819 260.005)"/>
<use xlink:href="#stroke0_6412_4727" transform="matrix(-0.317079 -0.0121125 -0.0119426 0.317022 911.336 269.676)"/>
<use xlink:href="#stroke0_6412_4727" transform="matrix(-0.286125 0.13699 0.137167 0.286153 835.16 253.402)"/>
<use xlink:href="#stroke0_6412_4727" transform="matrix(-0.20231 -0.244514 -0.244444 0.202145 852.978 339.093)"/>
<use xlink:href="#stroke0_6412_4727" transform="matrix(-0.315966 -0.0292793 -0.0291127 0.315899 788.885 286.261)"/>
<use xlink:href="#stroke0_6412_4727" transform="matrix(-0.305035 0.0872033 0.0873827 0.305033 722.951 275.882)"/>
<use xlink:href="#stroke0_6412_4727" transform="matrix(-0.314329 0.0431718 0.0433491 0.314302 692.17 291.392)"/>
<use xlink:href="#stroke0_6412_4727" transform="matrix(-0.24613 0.20009 0.200255 0.246199 612.971 297.421)"/>
<use xlink:href="#stroke0_6412_4727" transform="matrix(-0.0288951 0.315919 0.315986 0.0290617 549.433 352.139)"/>
<use xlink:href="#stroke0_6412_4727" transform="matrix(0.181616 0.260244 0.260188 -0.181446 560.92 423.213)"/>
<use xlink:href="#stroke0_6412_4727" transform="matrix(0.314523 0.0420839 0.0419202 -0.31445 619.765 501.625)"/>
<use xlink:href="#stroke0_6412_4727" transform="matrix(0.260177 0.181743 0.181631 -0.260037 642.127 479.957)"/>
<use xlink:href="#stroke0_6412_4727" transform="matrix(0.260341 -0.181225 -0.181396 -0.260398 753.52 551.232)"/>
<use xlink:href="#stroke0_6412_4727" transform="matrix(0.212208 0.235979 0.235902 -0.212047 722.271 478.403)"/>
<use xlink:href="#stroke0_6412_4727" transform="matrix(0.315931 0.0296563 0.0294899 -0.315864 786.245 540.165)"/>
<use xlink:href="#stroke0_6412_4727" transform="matrix(0.311112 -0.0622008 -0.0623794 -0.311096 846.641 560.379)"/>
<use xlink:href="#stroke0_6412_4727" transform="matrix(0.272415 0.162824 0.162702 -0.272283 851.475 519.157)"/>
<use xlink:href="#stroke0_6412_4727" transform="matrix(0.305962 0.0842304 0.0840781 -0.305867 902.977 542.58)"/>
<use xlink:href="#stroke0_6412_4727" transform="matrix(0.196974 -0.248616 -0.248763 -0.197078 1028.13 579.677)"/>
<use xlink:href="#stroke0_6412_4727" transform="matrix(0.305139 0.0871686 0.0870172 -0.305043 986.751 542.993)"/>
<use xlink:href="#stroke0_6412_4727" transform="matrix(0.314052 0.045476 0.045313 -0.313977 1035.39 549.789)"/>
<use xlink:href="#stroke0_6412_4727" transform="matrix(0.166976 -0.269683 -0.269816 -0.167096 1163.51 571.821)"/>
<use xlink:href="#stroke0_6412_4727" transform="matrix(0.150975 -0.278959 -0.279085 -0.151102 1209.98 566.45)"/>
<use xlink:href="#stroke0_6412_4727" transform="matrix(0.24229 -0.204721 -0.204885 -0.242362 1221.9 566.523)"/>
<use xlink:href="#stroke0_6412_4727" transform="matrix(0.179183 -0.26173 -0.261869 -0.179296 1285.28 557.403)"/>
<use xlink:href="#stroke0_6412_4727" transform="matrix(0.289663 -0.12935 -0.129528 -0.289686 1282.03 547.542)"/>
<use xlink:href="#stroke0_6412_4727" transform="matrix(0.264644 -0.174887 -0.175059 -0.264696 1335.35 538.11)"/>
<use xlink:href="#stroke0_6412_4727" transform="matrix(0.0681231 -0.309819 -0.309905 -0.0682801 1429.55 499.664)"/>
<use xlink:href="#stroke0_6412_4727" transform="matrix(0.31438 -0.0428033 -0.0429806 -0.314353 1361.57 468.637)"/>
<use xlink:href="#stroke0_6412_4727" transform="matrix(-0.300016 -0.103454 -0.103308 0.299911 1486.82 320.186)"/>
<use xlink:href="#stroke0_6412_4727" transform="matrix(-0.195642 -0.249878 -0.249812 0.195475 1479.93 327.329)"/>
<use xlink:href="#stroke0_6412_4727" transform="matrix(-0.142187 -0.283695 -0.283664 0.14201 1438.1 330.734)"/>
<use xlink:href="#stroke0_6412_4727" transform="matrix(-0.214948 -0.233487 -0.233408 0.214787 1398.76 309.252)"/>
<use xlink:href="#stroke0_6412_4727" transform="matrix(-0.315478 -0.034161 -0.0339955 0.315409 1335.46 261.356)"/>
<use xlink:href="#stroke0_6412_4727" transform="matrix(-0.288445 0.13204 0.132218 0.28847 1257.01 244.738)"/>
<use xlink:href="#stroke0_6412_4727" transform="matrix(-0.310332 -0.0663078 -0.0661503 0.310247 1257.68 281.456)"/>
<use xlink:href="#stroke0_6412_4727" transform="matrix(-0.250421 0.194695 0.194862 0.250486 1155.54 256.664)"/>
<use xlink:href="#stroke0_6412_4727" transform="matrix(-0.254855 -0.189133 -0.189026 0.254712 1189.63 330.495)"/>
<use xlink:href="#stroke0_6412_4727" transform="matrix(-0.245083 0.201369 0.201535 0.245153 1071.7 277.156)"/>
<use xlink:href="#stroke0_6412_4727" transform="matrix(-0.072418 0.308841 0.30893 0.0725738 981.679 306.036)"/>
<use xlink:href="#stroke0_6412_4727" transform="matrix(-0.125904 0.291141 0.291256 0.126042 955.324 314.838)"/>
<use xlink:href="#stroke0_6412_4727" transform="matrix(-0.316731 0.0188833 0.019058 0.316691 1002.55 342.348)"/>
<use xlink:href="#stroke0_6412_4727" transform="matrix(-0.280603 -0.148263 -0.148135 0.280478 991.789 397.88)"/>
<use xlink:href="#stroke0_6412_4727" transform="matrix(-0.301039 0.100107 0.100286 0.301045 911.44 373.983)"/>
<use xlink:href="#stroke0_6412_4727" transform="matrix(-0.0054966 0.317203 0.317257 0.00566764 785.573 419.775)"/>
<use xlink:href="#stroke0_6412_4727" transform="matrix(-0.287979 0.133051 0.133229 0.288005 839.331 425.89)"/>
<use xlink:href="#stroke0_6412_4727" transform="matrix(-0.2987 0.106874 0.107053 0.29871 821.928 462.569)"/>
<use xlink:href="#stroke0_6412_4727" transform="matrix(0.0825311 0.306379 0.306383 -0.0823518 704.265 541.868)"/>
<use xlink:href="#stroke0_6412_4727" transform="matrix(0.171545 0.266985 0.266935 -0.171372 709.725 604.775)"/>
<use xlink:href="#stroke0_6412_4727" transform="matrix(0.180739 0.260854 0.260798 -0.180569 748.091 621.758)"/>
<use xlink:href="#stroke0_6412_4727" transform="matrix(0.231627 -0.216705 -0.216866 -0.231708 873.69 718.549)"/>
<use xlink:href="#stroke0_6412_4727" transform="matrix(0.257408 -0.185365 -0.185534 -0.257468 905.247 715.524)"/>
<use xlink:href="#stroke0_6412_4727" transform="matrix(0.274697 -0.158645 -0.15882 -0.274739 938.968 709.514)"/>
<use xlink:href="#stroke0_6412_4727" transform="matrix(0.224043 -0.224535 -0.224693 -0.224129 1002.11 705.25)"/>
<use xlink:href="#stroke0_6412_4727" transform="matrix(0.149122 -0.279954 -0.28008 -0.149249 1067.27 694.004)"/>
<use xlink:href="#stroke0_6412_4727" transform="matrix(0.252586 0.192154 0.192048 -0.252441 999.601 626.167)"/>
<use xlink:href="#stroke0_6412_4727" transform="matrix(0.316993 -0.0138736 -0.0140476 -0.31695 1069.04 662.184)"/>
</g>
</g>
<defs>
<filter id="filter0_f_6412_4727" x="-335.508" y="77.5799" width="2180.96" height="296.821" filterUnits="userSpaceOnUse" color-interpolation-filters="sRGB">
<feFlood flood-opacity="0" result="BackgroundImageFix"/>
<feBlend mode="normal" in="SourceGraphic" in2="BackgroundImageFix" result="shape"/>
<feGaussianBlur stdDeviation="6.15" result="effect1_foregroundBlur_6412_4727"/>
</filter>
<linearGradient id="paint0_linear_6412_4727" x1="797.126" y1="2.77523e-05" x2="1240.5" y2="603.042" gradientUnits="userSpaceOnUse">
<stop stop-color="#0022CC"/>
<stop offset="1" stop-color="#261D77"/>
</linearGradient>
<linearGradient id="paint1_linear_6412_4727" x1="32.4646" y1="527.369" x2="1155.55" y2="881.416" gradientUnits="userSpaceOnUse">
<stop offset="1" stop-color="#080032"/>
</linearGradient>
<linearGradient id="paint2_linear_6412_4727" x1="669.187" y1="599.823" x2="321.851" y2="463.949" gradientUnits="userSpaceOnUse">
<stop/>
</linearGradient>
<linearGradient id="paint3_linear_6412_4727" x1="253.83" y1="275.562" x2="380.897" y2="415.97" gradientUnits="userSpaceOnUse">
<stop stop-color="#00055E"/>
<stop offset="1" stop-color="#000150"/>
</linearGradient>
<linearGradient id="paint4_linear_6412_4727" x1="797.126" y1="2.77523e-05" x2="1240.5" y2="603.042" gradientUnits="userSpaceOnUse">
<stop stop-color="#722792"/>
<stop offset="1" stop-color="#5C1D77"/>
</linearGradient>
<linearGradient id="paint5_linear_6412_4727" x1="32.4646" y1="527.369" x2="1155.55" y2="881.416" gradientUnits="userSpaceOnUse">
<stop stop-color="#1F1246"/>
<stop offset="0.278846" stop-color="#271356"/>
<stop offset="1" stop-color="#161036"/>
</linearGradient>
<linearGradient id="paint6_linear_6412_4727" x1="669.187" y1="599.823" x2="321.851" y2="463.949" gradientUnits="userSpaceOnUse">
<stop stop-color="#11003B"/>
<stop offset="1" stop-color="#23124D"/>
</linearGradient>
<linearGradient id="paint7_linear_6412_4727" x1="253.83" y1="275.562" x2="380.897" y2="415.97" gradientUnits="userSpaceOnUse">
<stop stop-color="#42005E"/>
<stop offset="1" stop-color="#380050"/>
</linearGradient>
<g id="stroke0_6412_4727" data-figma-scatter-ref="stroke0_6412_4727_ref" data-figma-scatter="f0.39_w0_aj61_sj0_r0_s0_sw123">
<path d="M84.7266 363.422C85.6806 360.935 87.8912 361.8 90.5372 365.694C94.3747 371.342 94.2353 381.473 90.2676 385.274C85.0886 390.236 83.0529 386.967 87.1719 380.302C88.5848 378.016 88.9575 376.506 88.3135 375.684C86.6635 373.578 84.1397 364.95 84.7266 363.422ZM112.562 370.346C116.788 367.256 129.072 372.294 129.072 377.117C129.072 380.962 115.972 378.178 112.11 373.512C110.811 371.942 110.861 371.59 112.562 370.346ZM130.128 343.893C134.104 341.339 135.466 344.775 133.602 352.65C132.904 355.602 133.098 355.947 136.21 357.263C140.454 359.059 143.359 362.273 142.875 364.638C142.407 366.926 138.563 366.646 132.112 363.856C124.693 360.648 124.572 360.525 124.572 356.116C124.572 352.747 123.981 351.471 121.263 348.989C117.013 345.107 117.922 343.547 124.013 344.268C126.581 344.573 129.333 344.404 130.128 343.893ZM179.522 352.071C182.311 349.877 184.982 350.181 184.982 352.692C184.982 355.514 178.891 363.923 176.847 363.924C172.72 363.924 174.504 356.018 179.522 352.071ZM109.589 344.912C111.467 338.993 118.551 349.307 117.409 356.299C116.696 360.667 114.411 362.145 112.472 359.493C110.682 357.045 108.784 347.447 109.589 344.912ZM54.4366 345.962C58.8225 345.962 65.2746 358.18 61.628 359.579C58.569 360.753 52.0725 352.537 52.0723 347.494C52.0723 346.55 52.9797 345.962 54.4366 345.962ZM234.648 349.839C236.468 346.896 243.072 351.858 243.072 356.166C243.072 359.249 238.992 357.984 236.374 354.089C235.127 352.234 234.351 350.322 234.648 349.839ZM161.649 345.591C163.813 343.426 167.25 348.431 166.802 353.095C166.402 357.251 163.791 357.994 162.16 354.416C160.875 351.594 160.589 346.651 161.649 345.591ZM69.4922 339.712C71.4662 336.715 74.7898 336.061 75.7207 338.487C76.6931 341.025 71.6628 351.461 69.4668 351.462C66.8958 351.462 66.9132 343.628 69.4922 339.712ZM201.615 328.477C203.09 324.635 213.095 329.25 216.118 334.07C218.025 333.665 218.982 334.388 218.982 336.236C218.982 341.696 205.356 348.944 203.615 344.409C203.067 342.982 205.992 339.725 209.994 337.057C205.02 334.252 200.979 330.133 201.615 328.477ZM254.648 331.212C256.53 327.694 259.717 326.873 260.775 329.632C261.895 332.549 257.875 342.462 255.572 342.462C252.796 342.461 252.24 335.708 254.648 331.212ZM206.739 82.6289C209.384 79.984 212.798 83.8781 216.08 93.2871C217.524 97.4227 218.491 98.6683 220.902 99.4882C222.561 100.052 224.742 101.251 225.747 102.153C226.751 103.055 229.373 104.115 231.572 104.508C233.772 104.901 236.197 105.72 236.959 106.328C237.817 107.011 241.882 107.314 247.61 107.121C257.657 106.783 260.606 107.665 264.95 112.315C269.124 116.785 265.712 119.686 260.072 116.462C258.697 115.676 255.322 115.011 252.572 114.984C249.195 114.952 246.211 114.159 243.374 112.537C238.11 109.527 235.986 110.924 238.093 116.01C239.162 118.591 239.757 118.97 241.971 118.483C246.804 117.422 251.064 122.31 251.104 128.962C251.13 133.442 250.995 136.868 250.685 139.261C251.188 139.068 251.698 138.902 252.213 138.767C255.301 137.955 256.753 139.791 255.467 142.879C254.29 145.703 254.539 146.325 256.882 146.411C259.813 146.519 260.169 148.067 258.075 150.697C259.5 151.143 259.953 152.694 259.047 154.868C259.018 154.938 258.99 155.008 258.963 155.075C261.125 156.513 262.132 157.662 262.156 158.738C264.131 159.675 262.569 162.489 257.67 166.6C254.32 169.41 251.646 171.034 249.841 171.445C249.372 180.502 247.146 183.919 244.115 180.227C242.865 178.704 241.606 178.226 239.769 178.577C237.792 178.955 236.329 177.273 235.575 174.687C234.508 174.588 233.314 174.474 231.976 174.344C223.161 173.487 218.937 179.115 227.438 180.389C230.257 180.812 232.334 181.557 233.622 182.396C234.932 180.353 237.22 181.682 238.648 186.96C240.412 193.474 237.265 200.282 234.352 196.257C233.608 195.23 232.846 191.893 232.658 188.841C232.607 188.008 232.601 187.243 232.632 186.546C231.632 186.808 230.334 186.962 228.727 186.962C225.139 186.962 222.898 187.467 222.072 188.462C221.387 189.287 220.235 189.962 219.51 189.962C214.69 189.962 218.385 195.429 224.275 197.017C226.82 197.702 228.546 198.908 229.277 200.513C230.191 202.519 231.119 202.962 234.404 202.962C236.699 202.962 239.182 203.656 240.207 204.583C242.331 206.506 245.306 205.736 244.443 203.487C243.694 201.535 245.758 198.962 248.072 198.962C249.038 198.962 250.516 197.95 251.357 196.712C255.317 190.884 259.601 200.173 256.196 207.206C256.091 207.423 255.992 207.633 255.896 207.836C256.647 208.511 257.347 209.271 257.95 210.103C260.044 212.989 260.188 213.73 258.847 214.701C258.512 214.943 258.046 215.039 257.488 215.019C262.823 217.532 266.991 224.288 263.546 225.61C262.614 225.968 260.354 224.947 258.071 223.414C256.381 226.82 246.271 223.007 243.121 218.518C242.478 219.833 242.048 221.498 241.931 223.462C241.573 229.462 241.573 229.462 246.708 229.13C251.462 228.823 252.108 229.064 255.425 232.38C259.436 236.391 259.416 236.384 262.255 234.864C265.916 232.905 267.595 235.774 265.597 240.57C263.867 244.721 257.446 251.961 255.492 251.962C252.598 251.962 252.127 254.565 254.247 258.848C256.609 263.623 255.332 266.766 251.61 265.338C249.557 264.549 243.656 252.336 242.678 246.85C241.874 242.341 244.405 239.328 246.541 242.25C249.507 246.305 253.092 242.813 250.787 238.112C249.373 235.227 248.481 235.129 242.791 237.229C237.279 239.264 236.548 240.28 238.024 243.846C239.576 247.594 238.772 248.962 235.014 248.962C232.388 248.962 232.072 249.296 232.072 252.08C232.072 254.115 231.036 256.379 229.087 258.598C227.445 260.468 225.811 263.227 225.456 264.729C225.101 266.232 223.922 268.441 222.837 269.638C220.63 272.071 221.197 273.962 224.132 273.962C226.112 273.962 226.433 273.188 226.111 269.212C225.958 267.32 226.427 266.962 229.051 266.962C230.768 266.962 233.522 266.264 235.172 265.411C240.11 262.857 247.072 268.08 247.072 274.337C247.072 275.716 247.522 277.122 248.072 277.462C251.669 279.685 247.034 289.082 243.321 287.095C240.428 285.547 240.622 285.45 237.152 290.168C234.669 293.545 234.178 295.006 234.661 297.581C236.068 305.08 230.74 308.074 228.473 301.058C227.137 296.925 224.657 294.962 220.774 294.962C218.527 294.962 217.998 295.324 218.466 296.544C218.8 297.414 219.072 298.968 219.072 299.997C219.072 301.234 220.514 302.513 223.322 303.77C228.384 306.034 231.541 309.299 230.726 311.425C229.504 314.607 220.766 312.406 214.846 307.424C210.641 303.886 207.714 304.465 207.072 308.962C205.866 317.407 199.037 311.767 198.723 302.066C198.577 297.584 198.652 297.462 201.572 297.462C203.222 297.462 205.922 296.513 207.572 295.354C211.47 292.616 213.233 292.061 215.072 292.992C219.357 295.162 224.648 287.071 221.16 283.682C218.948 281.533 217.688 280.885 217.369 281.732C217.107 282.431 215.615 283.665 214.054 284.472C212.492 285.279 210.928 286.845 210.576 287.951C209.602 291.022 206.354 290.408 204.488 286.799C202.28 282.531 196.753 276.962 194.722 276.962C192.824 276.962 192.59 278.078 194.158 279.646C197.994 283.482 193.85 286.177 186.822 284.417C185.054 283.974 184.072 284.127 184.072 284.845C184.072 286.866 188.025 289.962 190.604 289.962C196.969 289.962 193.967 295.763 187.126 296.682C182.951 297.242 182.911 297.285 183.535 300.612C184.101 303.626 183.876 304.086 181.39 305.031C179.864 305.612 177.42 307.517 175.961 309.265C175.928 309.305 175.893 309.344 175.86 309.383C178.412 311.116 182.982 317.749 182.982 320.193C182.982 322.705 180.311 323.008 177.522 320.813C176.35 319.892 175.356 318.753 174.571 317.551C174.571 317.555 174.572 317.559 174.572 317.562C174.572 319.214 173.792 319.464 168.572 319.481C167.135 319.486 165.875 319.565 164.793 319.716C164.796 319.741 164.799 319.766 164.802 319.791C165.118 323.088 163.493 326.551 161.749 327.536C161.853 327.676 161.96 327.818 162.072 327.962C163.148 329.337 164.039 331.25 164.051 332.212C164.103 336.358 154.609 332.371 151.37 326.887C150.419 325.277 148.724 323.676 147.606 323.33C146.488 322.983 144.379 321.859 142.919 320.831C141.459 319.803 139.434 318.959 138.419 318.956C137.404 318.952 135.284 318.277 133.709 317.456C129.735 315.384 129.365 315.468 123.103 319.86C114.903 325.612 109.405 326.871 106.673 323.622C103.491 319.837 96.4944 316.666 94.125 317.934C91.082 319.563 88.2653 319.145 87.5723 316.962C87.2233 315.862 86.5996 314.962 86.1866 314.962C83.2776 314.962 78.2192 308.138 77.6622 303.462C76.4182 293.023 76.3427 293.488 79.3223 293.145C87.323 292.224 73.887 268.886 65.751 269.572C56.6621 270.34 47.3589 263.351 55.8575 262.139C60.9293 261.416 62.3526 253.962 57.418 253.962C56.07 253.962 53.8918 252.79 52.5518 251.345C49.5969 248.157 46.4378 248.714 47.5635 252.224C49.7095 258.917 49.4346 260.94 46.2247 262.059C44.5358 262.648 42.8982 263.938 42.584 264.926C42.271 265.915 40.7899 266.995 39.293 267.325C37.7041 267.677 35.7356 269.281 34.5596 271.183C30.7147 277.401 26.0501 274.873 29.5108 268.447C32.5477 262.808 29.3459 257.595 25.169 261.375C22.1941 264.067 20.0689 262.755 20.0948 258.243C20.1198 253.924 23.3945 245.963 25.1465 245.962C26.0125 245.962 25.997 245.575 25.0831 244.474C24.0021 243.172 23.4767 243.25 20.875 245.103C16.5261 248.199 14.0489 245.844 16.5557 240.995C18.1046 237.999 18.1045 237.655 16.5577 235.945C12.8147 231.81 17.5807 228.141 26.8536 228.018C32.1423 227.949 33.6194 230.291 30.0899 233.148C27.894 234.927 27.8442 235.237 29.1221 239.11C30.318 242.734 30.2846 243.334 28.8292 244.398C25.3942 246.909 27.8521 255.012 32.5411 256.635C37.9657 258.513 39.4642 257.766 38.7774 253.53C38.3614 250.968 38.6985 249.705 40.1495 248.393C41.3084 247.343 42.0723 245.338 42.0723 243.344C42.0723 241.525 42.9164 237.882 43.9483 235.249C47.7282 225.603 47.7558 223.558 44.0792 225.459C39.4692 227.843 37.9022 226.882 38.6612 222.134C39.6091 216.206 34.376 215.28 32.544 221.052C31.692 223.738 29.2417 223.427 27.8907 220.462C27.0277 218.567 25.9904 217.962 23.6084 217.962C17.7777 217.961 9.82747 206.374 13.0176 202.528C13.7326 201.667 14.9792 200.962 15.7881 200.962C16.5964 200.962 18.4182 200.048 19.837 198.933C23.3228 196.191 24.9154 197.743 23.2735 202.284C21.6987 206.637 21.7571 208.021 23.6709 211.858C25.5339 215.591 27.158 215.477 28.211 211.539C29.095 208.233 31.8386 204.962 33.7276 204.962C36.3184 204.962 35.0397 202.975 31.4961 201.494C23.8622 198.305 30.0697 194.321 38.3936 197.067C41.8283 198.201 42.3858 198.154 43.2247 196.656C44.8466 193.756 46.6414 194.771 49.0723 199.962C50.3603 202.712 51.9581 204.962 52.6211 204.962C54.7489 204.962 56.5473 207.887 55.2305 209.204C51.205 213.23 54.4757 224.483 59.4024 223.56C65.1453 222.482 67.9553 217.126 65.1543 212.594C63.9154 210.59 63.0723 207.535 63.0723 205.051C63.0723 200.875 63.0727 200.875 59.3702 201.169C55.9342 201.441 55.4924 201.152 53.2754 197.178C49.6856 190.744 51.3838 189.325 58.7647 192.589C67.1976 196.319 68.5277 195.324 62.8389 189.542C58.51 185.142 57.8247 184.794 54.8389 185.469C53.0429 185.875 48.1707 186.342 44.0127 186.507C38.4609 186.726 35.4809 187.379 32.7959 188.963C27.7291 191.952 24.1098 187.666 28.5723 183.962C30.6302 182.254 30.4579 181.095 27.8282 178.964C25.0882 176.746 29.7969 168.756 34.2139 168.125C35.5119 167.94 37.554 166.59 38.753 165.125C40.6799 162.772 41.1791 162.611 43.0401 163.743C44.7888 164.808 45.5162 164.765 47.3321 163.493C48.5341 162.651 50.993 161.962 52.7959 161.962C55.2427 161.962 56.0778 161.519 56.0909 160.212C56.1169 157.667 63.1549 152.225 67.4659 151.416C71.2246 150.711 74.0721 148.698 74.0723 146.746C74.0722 146.027 71.5917 145.861 66.5469 146.243C58.0339 146.886 56.8861 146.103 55.5381 138.723C54.5632 133.388 57.1897 132.549 61.1817 136.92C63.0555 138.972 64.7043 139.932 65.6963 139.553C66.5554 139.223 68.3421 138.682 69.6661 138.349C72.2356 137.703 72.9127 135.498 70.792 134.684C68.8301 133.931 65.9658 123.75 66.6924 120.112C66.9347 118.9 66.9289 117.73 66.7012 116.804C66.4014 117.01 66.0258 117.142 65.5684 117.182C63.7811 117.336 58.33 111.31 56.8565 107.932C53.1126 113.224 47.0723 115.788 47.0723 111.397C47.0728 109.311 50.5953 104.104 53.9581 101.217C58.7066 97.1402 61.0731 99.033 58.7911 104.435C59.6819 104.489 60.7565 104.87 61.879 105.605C64.2254 107.143 66.0152 109.495 66.9366 111.68C68.2352 111.421 70.1791 111.41 72.7784 111.647C76.5152 111.988 79.7126 112.62 79.8848 113.051C80.0568 113.482 83.2172 113.581 86.9092 113.272C93.1105 112.752 93.8566 112.909 96.7403 115.336C100.258 118.296 101.116 118.437 105.64 116.802C108.449 115.786 109.192 115.911 111.596 117.802C113.107 118.99 114.776 119.962 115.307 119.962C115.837 119.962 117.531 121.312 119.072 122.962C120.684 124.688 122.873 125.948 124.224 125.929C126.573 125.895 126.572 125.895 124.072 123.908C117.722 118.862 116.94 117.922 117.252 115.724C117.536 113.721 118.057 113.498 121.809 113.778C126.045 114.094 126.045 114.094 127.308 109.373C129.222 102.215 136.516 99.6121 141.071 104.461C143.07 106.589 143.653 106.762 144.996 105.632C153.019 98.8832 160.302 98.356 157.961 104.693C157.051 107.155 158.223 108.136 163.572 109.387C165.222 109.772 168.234 111.408 170.264 113.024C172.295 114.639 174.705 115.962 175.62 115.962C176.535 115.962 178.621 117.087 180.255 118.462C184.129 121.722 187.067 121.622 190.425 118.117C192.832 115.604 192.97 115.122 191.611 113.994C189.72 112.425 189.619 109.582 191.402 108.103C192.188 107.449 192.551 105.766 192.289 103.98C191.79 100.579 193.801 99.9698 198.484 102.103C203.522 104.398 207.067 100.438 203.008 97.0488C199.463 94.0888 199.639 92.4578 203.67 90.9248C205.549 90.2108 206.072 89.2788 206.072 86.6533C206.072 84.8067 206.372 82.9954 206.739 82.6289ZM38.7393 319.629C40.9943 317.373 43.4182 319.745 45.0342 325.788C46.1841 330.089 45.3435 332.962 42.9356 332.962C40.1627 332.961 36.6299 321.738 38.7393 319.629ZM281.533 316.027C283.862 312.258 289.062 318.943 289.068 325.712C289.071 329.278 288.755 329.962 287.099 329.962C284.006 329.962 279.655 319.067 281.533 316.027ZM69.3223 323.182C75.7043 320.105 87.3176 323.838 82.6319 327.461C79.0519 330.229 67.0723 328.827 67.0723 325.64C67.0725 324.885 68.0856 323.779 69.3223 323.182ZM186.062 310.212C188.27 306.59 189.241 306.255 191.085 308.476C193.607 311.515 190.34 323.962 187.019 323.962C183.529 323.962 182.929 315.35 186.062 310.212ZM254.844 301.893C260.797 298.117 262.077 298.813 262.057 305.819C262.026 315.804 254.496 324.731 253.078 316.462C252.676 314.119 251.979 313.394 249.902 313.154C244.232 312.497 246.587 307.128 254.844 301.893ZM154.939 296.289C155.096 289.337 150.202 285.906 146.339 290.259C142.703 294.355 139.191 295.811 135.606 294.711C130.365 293.102 127.072 294.383 127.072 298.031C127.072 301.837 125.108 305.648 121.261 309.304C117.354 313.018 114.482 312.557 114.814 308.269C115.046 305.246 114.913 305.139 110.314 304.663C107.706 304.393 104.672 304.012 103.572 303.816C100.002 303.183 100.265 309.251 103.922 311.853C105.55 313.013 107.226 313.961 107.648 313.962C108.069 313.962 109.193 314.666 110.144 315.525C112.542 317.695 118.106 316.512 122.714 312.85C126.764 309.631 129.215 309.224 131.072 311.462C131.863 312.415 134.073 312.962 137.13 312.962C139.777 312.962 143.17 313.429 144.671 313.999C149.959 316.01 149.595 313.26 144.212 310.532C138.666 307.722 137.053 304.736 139.058 300.991C140.337 298.6 143.883 298.828 149.413 301.655C153.753 303.873 154.79 302.866 154.939 296.289ZM169.655 310.703C164.846 308.409 163.859 308.496 161.077 311.458C158.138 314.586 159.121 315.707 163.433 314.148C166.736 312.954 171.456 313.874 173.528 315.659C172.913 314.307 172.577 312.971 172.56 311.852C171.884 311.765 171.027 311.357 169.655 310.703ZM65.5362 303.021C66.8164 300.951 70.0701 302.012 73.2989 305.552C77.4786 310.135 78.3645 312.475 76.5049 314.019C73.4409 316.561 63.3932 306.488 65.5362 303.021ZM52.1856 299.545C54.4226 296.701 57.3486 296.44 57.8497 299.04C58.2744 301.25 54.2931 305.961 52 305.962C49.4171 305.962 49.5037 302.954 52.1856 299.545ZM167.244 288.617C165.382 286.932 162.067 286.351 162.081 287.712C162.1 289.536 168.738 301.387 170.274 302.338C173.032 304.045 173.459 302.321 171.187 298.646C170.024 296.765 169.072 294.111 169.072 292.749C169.072 291.387 168.25 289.527 167.244 288.617ZM281.051 293.658C285.743 286.26 290.022 287.689 287.006 295.646C284.615 301.957 278.073 305.627 278.072 300.658C278.072 299.39 279.413 296.24 281.051 293.658ZM316.848 293.569C319.752 292.045 322.634 293.154 321.41 295.325C319.149 299.334 314.796 301.353 312.774 299.331C311.714 298.269 313.968 295.081 316.848 293.569ZM108.072 291.207C108.072 289.038 106.197 288.947 104.728 291.044C101.478 295.684 106.306 300.998 111.047 297.999C112.296 297.209 112.182 296.707 110.297 294.7C109.074 293.398 108.073 291.826 108.072 291.207ZM37.0215 275.962C39.5575 275.962 39.9333 284.831 37.5723 288.962C36.7864 290.337 36.1275 292.419 36.1075 293.59C36.0435 297.477 33.5448 298.478 29.0088 296.433C24.7279 294.503 23.999 291.781 27.584 291.116C30.7308 290.532 32.0723 288.945 32.0723 285.807C32.0724 284.207 32.7246 281.337 33.5215 279.43C34.5075 277.071 35.6267 275.962 37.0215 275.962ZM94.0723 294.52C94.0722 292.764 93.4722 292.506 92.6153 293.893C92.2983 294.405 92.4977 295.106 93.0567 295.452C93.6156 295.797 94.0723 295.377 94.0723 294.52ZM57.4786 273.347C58.9807 269.432 66.5353 276.646 68.0723 283.464C69.0983 288.012 68.4705 289.962 65.9795 289.962C62.6265 289.961 56.0416 277.092 57.4786 273.347ZM310.472 272.364C311.837 268.808 318.297 273.044 321.177 279.383C323.428 284.341 323.547 286.565 321.6 287.312C318.169 288.629 308.972 276.275 310.472 272.364ZM143.873 269.162C142.464 267.753 142.286 267.754 139.262 269.21C137.937 269.847 136.704 271.559 136.371 273.22C136.008 275.037 134.9 276.456 133.406 277.024C132.094 277.523 130.74 278.726 130.395 279.697C130.05 280.668 129.117 282.221 128.322 283.148C124.468 287.644 130.251 288.144 134.849 283.712C138.221 280.462 138.221 280.462 140.144 282.82C143.435 286.855 145.072 284.985 145.072 277.192C145.072 273.213 144.572 269.862 143.873 269.162ZM237.861 277.418C236.384 275.94 231.333 275.944 230.105 277.424C228.047 279.904 231.224 286.224 234.305 285.779C236.341 285.486 239.202 278.758 237.861 277.418ZM92.6729 271.727C88.5169 268.952 84.8238 272.095 85.2618 278.036C85.6868 283.807 87.8728 285.076 91.8887 281.884C96.4306 278.274 96.7278 274.434 92.6729 271.727ZM157.109 273.564C152.71 269.783 150.992 270.767 151.461 276.799C151.949 283.071 151.425 282.81 160.489 281.287C166.635 280.255 167.335 278.516 162.429 276.466C160.348 275.597 157.954 274.29 157.109 273.564ZM288.038 267.519C291.242 262.335 294.086 262.664 294.032 268.212C293.977 273.82 290.251 281.462 287.572 281.462C284.672 281.461 284.972 272.479 288.038 267.519ZM179.739 274.962C175.539 274.962 174.829 277.074 178.473 278.735C181.17 279.963 182.072 279.477 182.072 276.795C182.072 275.541 181.335 274.962 179.739 274.962ZM217.072 271.453C217.072 268.344 214.573 266.752 212.788 268.724C210.58 271.164 210.618 272.648 212.92 273.88C214.86 274.918 217.072 273.625 217.072 271.453ZM109.059 268.212C109.076 266.704 104.457 266.531 103.546 268.006C102.836 269.155 105.606 273.961 106.979 273.962C107.83 273.962 109.033 270.635 109.059 268.212ZM164.697 260.103C154.989 260.752 152.032 262.778 155.594 266.341C158.686 269.432 162.64 268.416 164.843 263.962C166.822 259.962 166.821 259.961 164.697 260.103ZM187.466 256.544C186.172 253.171 181.299 254.901 179.73 259.29C179.073 261.125 183.76 266.962 185.889 266.962C187.828 266.962 188.856 260.167 187.466 256.544ZM303.492 254.696C303.275 252.194 305.91 251.66 308.879 253.605C314.219 257.104 316.68 264.825 312.568 265.182C310.532 265.357 303.737 257.508 303.492 254.696ZM267.052 248.525C268.488 244.175 270.876 244.063 272.884 248.253C274.507 251.639 273.546 261.323 271.411 263.096C267.754 266.132 264.657 255.781 267.052 248.525ZM268.196 241.241C267.952 238.42 270.173 238.038 274.835 240.1C280.158 242.454 284.712 246.317 284.213 248.054C283.873 249.238 282.705 249.731 281.144 249.722C282.32 251.287 283.412 253.509 284.128 256.168C285.58 261.559 285.052 263.462 282.108 263.462C279.042 263.461 274.409 253.744 275.467 249.53C275.574 249.102 275.709 248.737 275.867 248.433C272.094 246.825 268.432 243.958 268.196 241.241ZM213.322 252.138C208.496 249.671 205.048 249.891 204.041 252.73C203.508 254.232 202.621 256.243 202.072 257.198C198.894 262.72 202.72 263.416 208.964 258.452C211.379 256.533 213.741 254.962 214.214 254.962C215.73 254.962 215.13 253.062 213.322 252.138ZM321.64 253.524C320.79 248.917 323.781 243.634 326.124 245.604C327.273 246.568 327.414 251.517 326.378 254.439C325.062 258.145 322.398 257.63 321.64 253.524ZM140.228 238.558C135.02 235.339 126.339 238.754 121.898 245.769C119.206 250.022 120.061 254.512 123.368 253.491C124.581 253.117 126.923 252.484 128.572 252.086C131.572 251.361 131.572 251.361 128.822 249.547C123.38 245.955 126.418 242.962 135.507 242.962C140.864 242.962 143.449 240.549 140.228 238.558ZM98.0723 248.962C97.5225 248.962 97.0723 249.412 97.0723 249.962C97.0723 250.512 97.5225 250.962 98.0723 250.962C98.6223 250.962 99.0723 250.512 99.0723 249.962C99.0723 249.412 98.6223 248.962 98.0723 248.962ZM68.0723 248.497C68.0723 246.346 64.8842 244.929 62.7422 246.128C61.3372 246.914 61.2097 247.422 62.1397 248.543C63.7057 250.43 68.072 250.396 68.0723 248.497ZM53.8887 237.712C54.2287 234.763 52.4385 233.996 50.2725 236.162C48.151 238.284 48.7998 241.14 51.3223 240.782C52.9332 240.553 53.6627 239.681 53.8887 237.712ZM277.492 229.696C277.275 227.194 279.91 226.66 282.879 228.605C288.219 232.104 290.68 239.825 286.568 240.182C284.532 240.357 277.737 232.508 277.492 229.696ZM82.1094 224.506C80.0005 221.965 78.7693 222.696 79.4473 226.087C79.7913 227.806 80.0723 230.731 80.0723 232.587C80.0724 238.377 86.9934 236.763 89.0635 230.489C90.5065 226.117 89.6677 224.672 86.1368 225.448C84.2908 225.853 82.9714 225.545 82.1094 224.506ZM222.244 230.617C220.289 228.848 218.073 228.418 218.072 229.807C218.072 231.008 221.505 233.961 222.901 233.962C224.617 233.962 224.332 232.506 222.244 230.617ZM295.64 228.524C294.79 223.917 297.781 218.634 300.124 220.604C301.273 221.568 301.414 226.517 300.378 229.439C299.062 233.145 296.398 232.63 295.64 228.524ZM320.166 220.677C319.843 216.259 327.976 218.623 331.95 224.103C334.044 226.989 334.188 227.73 332.847 228.701C330.341 230.514 320.427 224.241 320.166 220.677ZM200.169 227.577C198.583 225.666 196.728 225.428 197.322 227.212C197.55 227.9 198.587 228.626 199.624 228.827C201.255 229.143 201.329 228.975 200.169 227.577ZM160.132 224.962C159.614 224.962 158.912 225.412 158.572 225.962C158.233 226.512 158.657 226.962 159.514 226.962C160.371 226.962 161.072 226.512 161.072 225.962C161.072 225.412 160.65 224.962 160.132 224.962ZM237.546 216.918C236.61 215.403 232.069 215.808 231.435 217.462C230.715 219.337 227.353 219.337 224.072 217.462C220.409 215.367 218.883 215.605 219.253 218.212C219.687 221.266 229.149 226.41 232.695 225.52C235.28 224.871 238.706 218.796 237.546 216.918ZM212.014 202.962C207.956 202.962 204.463 206.849 207.072 208.462C208.992 209.648 208.046 212.405 204.458 216.08C199.523 221.133 201.181 224.37 206.282 219.643C207.659 218.367 210.167 216.751 211.857 216.051C215.628 214.489 216.009 213.572 215.341 207.645C214.852 203.309 214.606 202.962 212.014 202.962ZM91.8594 218.824C91.5214 217.808 91.2853 217.808 90.6553 218.828C89.8217 220.177 90.6609 221.707 91.6768 220.69C92.0085 220.358 92.0913 219.519 91.8594 218.824ZM277.545 208.767C280.894 205.638 285.255 209.988 285.255 212.462C285.255 215.319 280.404 214.907 277.721 214.587C273.993 214.141 273.932 212.142 277.545 208.767ZM306.658 202.841C306.121 194.097 310.425 192.745 312.648 200.96C314.412 207.474 311.265 214.282 308.352 210.257C307.608 209.23 306.846 205.893 306.658 202.841ZM242.018 190.047C245.178 181.876 249.653 182.444 248.246 190.837C247.131 197.493 241.43 202.366 240.461 197.493C240.214 196.249 240.914 192.899 242.018 190.047ZM289.766 186.278C295.943 183.937 300 186.962 298.5 190.462C297 193.962 288.52 193.778 285.781 193.778C280.512 193.778 283.589 188.619 289.766 186.278ZM277.11 182.982C279.662 180.922 282.705 181.448 281.928 183.815C280.492 188.188 276.617 191.016 274.239 189.428C272.992 188.593 274.581 185.027 277.11 182.982ZM206.155 172.712C205.249 168.284 203.193 168.377 199.213 173.024C194.907 178.052 194.824 179.875 198.784 182.408C200.803 183.699 202.01 185.297 202.034 186.712C202.06 188.18 202.682 188.957 203.822 188.947C206.32 188.925 208.265 187.48 207.986 185.855C207.855 185.088 208.096 183.219 208.522 181.699C209.022 179.913 208.858 178.407 208.057 177.442C207.376 176.621 206.519 174.493 206.155 172.712ZM335.603 181.776C337.061 178.839 340.045 178.048 340.327 180.523C340.847 185.096 338.506 189.284 335.683 188.832C334.2 188.594 334.156 184.69 335.603 181.776ZM0.822315 165.522C2.28752 164.014 14.2035 165.648 16.1846 167.63C19.0436 170.489 12.0068 180.698 5.21685 183.543C-0.740068 186.038 -1.78844 182.579 3.07231 176.462C4.72229 174.386 6.07231 172.499 6.07231 172.271C6.07077 172.043 4.72135 171.386 3.07231 170.811C0.200712 169.81 -0.878545 167.274 0.822315 165.522ZM158.072 180.962C158.072 178.688 155.565 178.237 154.749 180.364C154.121 182 154.859 182.962 156.739 182.962C157.472 182.962 158.072 182.062 158.072 180.962ZM266.724 163.427C267.369 159.673 274.532 162.569 278.592 168.225C281.766 172.649 282.316 174.808 280.552 175.92C277.443 177.879 266.015 167.554 266.724 163.427ZM318.003 168.339C317.024 164.658 324.74 164.302 330.79 167.747C335.521 170.443 336.922 172.176 335.783 173.923C333.776 177.001 319.081 172.386 318.003 168.339ZM261.603 167.776C263.061 164.839 266.045 164.048 266.327 166.523C266.847 171.096 264.506 175.284 261.683 174.832C260.2 174.594 260.156 170.69 261.603 167.776ZM216.87 166.956C215.182 163.99 214.027 163.34 212.739 164.629C211.484 165.884 212.073 168.693 214.146 171.327C216.643 174.502 220.072 174.869 220.072 171.962C220.072 170.862 219.735 169.959 219.322 169.956C218.909 169.951 217.806 168.601 216.87 166.956ZM202.232 134.533C197.419 134.299 196.357 135.103 198.564 137.31C200.912 139.659 199.588 143.606 194.989 147.962C194.118 148.787 192.623 152.083 191.665 155.287C189.759 161.662 187.168 164.962 184.072 164.962C181.982 164.962 181.666 165.737 182.68 168.38C183.619 170.826 189.072 170.491 189.072 167.988C189.072 166.845 190.232 165.414 191.825 164.59C196.38 162.235 198.578 159.276 197.099 157.493C195.299 155.324 196.59 152.962 199.577 152.962C200.988 152.962 203.205 152.266 204.502 151.416C205.738 150.607 207.234 150.302 208.611 150.423C209.243 148.264 211.216 145.737 213.828 143.753C213.277 143.73 212.644 143.741 211.898 143.774C205.946 144.042 204.256 142.857 205.984 139.626C207.923 136.004 207.01 134.765 202.232 134.533ZM229.019 148.862C227.81 146.605 225.546 146.378 224.73 148.417C228.59 148.693 227.46 151.742 221.67 156.6C221.157 157.03 220.659 157.43 220.179 157.805C220.21 157.859 220.244 157.912 220.275 157.968C221.212 159.615 222.787 160.963 223.775 160.966C224.764 160.968 226.959 161.816 228.655 162.85C230.351 163.884 233.059 165.02 234.672 165.374C234.947 165.435 235.246 165.531 235.563 165.656C235.883 164.365 236.344 163.108 236.96 161.958C238.467 159.143 240.801 159.328 242.188 162.372C243.373 164.973 243.995 165.353 245.423 164.041C244.167 163.032 244.137 161.357 244.946 159.516C243.898 159.292 243.449 158.275 243.697 156.442C243.87 155.169 243.713 154.197 243.165 153.366C242.741 153.737 242.112 153.962 241.282 153.962C237.748 153.962 230.031 150.752 229.019 148.862ZM181.065 159.458C179.845 158.703 178.636 161.446 179.543 162.914C180.602 164.627 182.072 164.106 182.072 162.02C182.072 160.953 181.619 159.8 181.065 159.458ZM118.896 161.295C118.41 158.786 116.072 158.442 116.072 160.879C116.072 162.107 116.719 162.962 117.646 162.962C118.577 162.962 119.088 162.282 118.896 161.295ZM90.0723 154.462C90.0723 152.94 87.9573 152.411 86.7393 153.629C85.4717 154.896 86.0808 155.962 88.0723 155.962C89.1832 155.962 90.0723 155.295 90.0723 154.462ZM38.3223 149.431C43.4433 147.172 54.5722 147.868 54.5723 150.449C54.5719 152.945 50.1592 155.151 43.9776 155.745C35.8049 156.53 31.9608 152.239 38.3223 149.431ZM280.026 133.048C281.533 130.233 283.868 130.418 285.255 133.462C286.524 136.247 287.148 136.487 288.806 134.829C291.761 131.874 293.303 134.738 292.913 142.455C292.453 151.572 290.223 155.019 287.183 151.316C285.933 149.794 284.674 149.316 282.836 149.667C278.156 150.562 276.355 139.908 280.026 133.048ZM243.939 136.536C242.161 132.728 240.679 132.335 239.323 135.311C237.717 138.836 238.736 145.047 241.213 147.899C242.028 145.765 244.038 143.359 246.612 141.496C245.834 140.346 244.945 138.691 243.939 136.536ZM103.733 128.962C97.9907 125.32 98.2172 125.316 94.8223 129.127C91.9507 132.35 91.3797 134.416 93.0723 135.462C93.6223 135.802 94.0723 137.193 94.0723 138.552C94.0723 140.043 94.7675 141.231 95.8223 141.543C96.7853 141.828 99.2708 142.959 101.347 144.055C104.943 145.955 107.072 145.911 107.072 143.937C107.073 143.439 108.387 141.106 109.992 138.752C112.87 134.531 112.739 131.962 109.646 131.962C108.995 131.962 106.335 130.612 103.733 128.962ZM224.712 125.962C223.817 125.962 223.506 126.778 223.806 128.345C224.056 129.655 223.769 131.032 223.167 131.404C221.489 132.441 221.865 135.464 223.901 137.307C226.319 139.496 226.872 139.398 227.253 136.712C227.484 135.087 228.354 134.372 230.382 134.14C234.791 133.633 233.898 128.589 229.322 128.148C227.535 127.975 226.072 127.413 226.072 126.898C226.072 126.383 225.46 125.962 224.712 125.962ZM173.322 133.13C164.392 133.988 163.956 134.115 164.271 135.775C164.879 138.975 175.072 138.729 175.072 135.514C175.072 133.686 174.575 133.01 173.322 133.13ZM26.3477 124.686C28.5112 119.05 44.3073 124.127 47.0303 131.334C49.2503 137.209 45.4815 138.56 40.7715 133.577C38.3765 131.043 36.4706 130.057 33.1846 129.654C28.4067 129.067 25.4827 126.942 26.3477 124.686ZM182.322 129.1C180.366 128.049 180.072 128.132 180.072 129.736C180.072 133.507 182.288 135.094 186.369 134.246C190.826 133.32 191.311 131.696 187.373 130.886C185.833 130.569 183.56 129.765 182.322 129.1ZM170.746 120.028C161.543 116.529 156.358 118.773 157.536 125.745C158.516 131.546 160.512 132.944 163.105 129.647C164.5 127.875 166.278 126.983 168.849 126.77C173.637 126.373 174.971 121.634 170.746 120.028ZM90.1465 120.636C85.3295 115.819 74.0726 120.403 74.0723 127.182C74.0723 131.055 79.6253 132.218 82.5723 128.962C83.5672 127.862 85.1603 126.962 86.1124 126.962C88.5253 126.962 91.6195 122.109 90.1465 120.636ZM145.244 110.617C142.92 108.514 142.147 108.533 141.447 110.712C138.609 119.543 135.249 121.307 133.931 114.659C133.394 111.952 131.619 112.532 131.247 115.535C131.049 117.127 131.696 119.019 132.88 120.315C133.957 121.495 135.593 123.953 136.515 125.776C138.187 129.081 147.287 129.848 150.424 126.947C151.586 125.872 150.276 120.375 148.509 118.909C147.719 118.253 147.072 116.492 147.072 114.995C147.072 113.497 146.25 111.527 145.244 110.617ZM210.716 114.475C210.083 112.824 204.563 112.359 203.625 113.878C202.411 115.842 204.888 119.822 206.984 119.274C209.692 118.566 211.429 116.333 210.716 114.475ZM306.09 112.946C309.439 109.817 314.072 108.911 314.072 111.385C314.072 114.242 308.949 119.086 306.266 118.766C302.538 118.32 302.477 116.321 306.09 112.946ZM110.632 105.849C112.542 102.155 114.468 102.554 114.882 106.729C115.093 108.856 114.527 110.507 113.095 111.939C109.287 115.747 107.63 111.653 110.632 105.849ZM99.7393 77.6289C101.291 76.0759 103.158 77.2073 105 80.8193C106.2 83.1711 108.172 85.1751 110.054 85.9541C115.958 88.4001 118.294 92.9343 115.072 95.6933C113.972 96.6352 113.073 97.9434 113.072 98.6015C113.072 99.2585 111.418 100.622 109.396 101.63C106.381 103.132 105.472 104.329 104.347 108.275C102.665 114.178 99.7743 114.565 99.2403 108.958C98.8203 104.544 97.5048 102.962 94.251 102.962C92.246 102.962 91.9401 103.229 92.8731 104.162C96.6326 107.922 93.3142 110.708 87.6524 108.546C80.6358 105.866 79.0499 100.032 85.3223 99.9765C87.5622 99.9575 87.5248 99.3517 85.087 96.2519C81.344 91.494 86.5467 90.3896 95.1905 94.1074C101.709 96.9123 102.912 95.875 100.693 89.3632C99.0245 84.4646 98.5636 78.8044 99.7393 77.6289ZM146.739 68.6289C148.055 67.3119 150.06 68.0119 153.42 70.9619C155.299 72.6118 157.51 73.9619 158.333 73.9619C159.155 73.9621 160.348 74.5897 160.985 75.3564C161.621 76.1233 163.59 76.9854 165.357 77.2714C167.125 77.5584 170.597 78.1167 173.072 78.5126C175.547 78.9076 178.058 79.6131 178.652 80.0791C179.301 80.587 181.078 79.9341 183.098 78.4443C186.501 75.9325 191.45 75.1459 192.56 76.9404C193.756 78.8763 191.08 81.6864 186.37 83.4394C179.821 85.8764 179.315 86.5272 181.865 89.2421C185.461 93.0691 186.573 97.5476 184.656 100.475C183.639 102.027 183.268 103.892 183.663 105.465C184.967 110.659 179.151 115.17 176.018 111.395C175.302 110.534 173.427 109.163 171.852 108.348C168.318 106.52 165.082 101.407 165.077 97.6455C165.072 94.2037 163.447 90.962 161.729 90.9619C159.138 90.9617 156.795 88.1885 156.178 84.3906C155.734 81.6641 154.974 80.3743 153.662 80.121C152.23 79.846 151.939 80.1723 152.443 81.4873C153.444 84.094 151.29 86.0468 148.209 85.3271C145.819 84.7691 146.015 85.1691 150.322 89.621C154.321 93.7538 156.672 98.9613 154.541 98.9619C152.416 98.9619 146.044 95.2691 142.443 91.9501C136.929 86.8673 135.869 86.9399 132.953 92.6054C128.879 100.522 123.173 101.607 124.549 94.2011C126.454 83.9532 131.085 78.7928 136.205 81.2148C143.494 84.6616 145.477 84.6424 143.667 81.1435C141.533 77.0168 141.659 74.883 144.072 74.2519C145.313 73.9269 146.072 72.8876 146.072 71.5117C146.072 70.293 146.372 68.9952 146.739 68.6289ZM74.6397 105.524C73.7903 100.917 76.7811 95.6337 79.1241 97.6035C80.2725 98.5682 80.414 103.517 79.378 106.439C78.0624 110.145 75.3975 109.63 74.6397 105.524ZM267.062 88.2119C269.256 84.6139 270.243 84.257 272.033 86.414C273.395 88.0561 271.713 97.7052 269.55 100.663C265.52 106.174 263.197 94.5509 267.062 88.2119ZM21.1963 93.2412C20.9515 90.4199 23.1734 90.038 27.835 92.0996C33.1581 94.454 37.7119 98.3168 37.2129 100.054C35.8715 104.722 21.6684 98.6807 21.1963 93.2412ZM180.072 97.5683C180.072 96.0667 177.646 94.723 176.679 95.6884C175.974 96.3934 177.947 98.9614 179.194 98.9619C179.677 98.9618 180.072 98.3343 180.072 97.5683ZM260.707 73.9785C266.487 70.3138 267.327 70.9501 266.459 78.3378C265.457 86.8588 259.046 92.8724 250.893 92.9394C248.887 92.9554 248.132 93.5262 247.893 95.2021C247.387 98.7468 244.55 98.4694 242.186 94.6445C238.079 87.9986 240.03 83.0757 245.244 86.9296C248.889 89.6244 250.941 88.3098 254.045 81.2929C255.374 78.2879 257.373 76.0935 260.707 73.9785ZM292.79 80.9257C297.686 77.822 299.072 77.8679 299.072 81.1386C299.072 83.8525 291.899 90.961 289.159 90.9619C283.889 90.9619 285.951 85.2627 292.79 80.9257ZM68.5254 77.0527C70.2013 73.8109 71.8986 73.1879 73.8174 75.1064C74.6784 75.9674 76.1067 75.9317 79.5596 74.9658C84.6286 73.5468 89.0723 74.6748 89.0723 77.3818C89.0723 79.5078 87.3542 80.2931 80.0723 81.4931C74.6222 82.392 73.5229 82.9078 73.2627 84.6904C72.8988 87.1832 70.5752 89.3893 69.2041 88.5429C67.2782 87.3529 66.8595 80.2737 68.5254 77.0527ZM168.566 65.9707C169.716 64.1107 172.162 64.9356 175.129 68.1845C178.377 71.7395 178.836 73.7319 176.607 74.5869C173.414 75.8113 166.84 68.7666 168.566 65.9707ZM135.446 65.1025C141.305 63.7865 141.694 63.801 143 65.374C144.536 67.2261 138.744 71.8162 133.87 72.6074C125.754 73.9244 127.219 66.9516 135.446 65.1025ZM122.756 55.3242C126.961 48.9053 129.799 57.2686 126.188 65.4345C124.112 70.1283 120.663 71.6637 119.428 68.4443C118.669 66.4673 120.7 58.4613 122.756 55.3242ZM232.273 55.1621C234.819 52.6152 236.558 54.6322 237.402 61.1162C238.331 68.2549 234.576 70.0447 232.136 63.6269C230.736 59.9451 230.789 56.6462 232.273 55.1621ZM206.655 42.1953C209.317 38.1323 211.53 39.7192 211.883 45.9492C212.138 50.4407 212.69 51.8666 214.977 53.9384C218.852 57.4504 220.408 61.4387 218.515 63.0097C217.338 63.9867 216.424 63.5049 213.592 60.413C210.3 56.8191 210.015 56.7051 208.265 58.289C207.248 59.2089 205.841 59.9618 205.138 59.9619C204.436 59.9619 202.976 61.0869 201.894 62.4619C199.854 65.0548 196.684 65.7598 195.522 63.8789C195.153 63.2839 192.877 61.9499 190.463 60.915C185.534 58.8021 184.774 56.4059 188.572 54.9619C189.947 54.4389 191.072 53.3025 191.072 52.4365C191.073 46.1567 197.097 42.723 198.923 47.9619C200.288 51.8768 202.591 51.7838 203.995 47.7568C204.609 45.994 205.806 43.4914 206.655 42.1953ZM125.427 41.6367C129.829 40.7407 131.457 41.5613 134.731 46.3212C139.905 53.8461 137.405 57.7098 131.726 50.9619C129.695 48.5479 128.419 47.9619 125.196 47.9619C118.999 47.9616 119.184 42.9076 125.427 41.6367ZM100.739 46.6289C101.838 45.53 110.789 45.8761 113.525 47.123C118.261 49.28 115.927 52.9618 109.822 52.9619C103.528 52.9617 98.154 49.2148 100.739 46.6289ZM270.146 20.7851C271.026 18.6601 271.934 17.9431 273.465 18.1611C276.158 18.5455 277.075 28.2098 274.724 31.4248C271.575 35.7306 267.693 26.7071 270.146 20.7851ZM105.702 16.9912C109.513 12.4622 112.484 12.8529 111.821 17.7959C111.206 22.3808 106.662 29.9617 104.528 29.9619C100.893 29.9613 101.628 21.833 105.702 16.9912ZM184.611 18.1093C187.401 15.9145 190.072 16.2188 190.072 18.7304C190.072 21.5524 183.981 29.9617 181.937 29.9619C177.81 29.9616 179.593 22.0563 184.611 18.1093ZM166.739 11.6289C168.903 9.46401 172.34 14.4688 171.892 19.1328C171.492 23.2886 168.882 24.0317 167.251 20.4541C165.966 17.6323 165.679 12.6894 166.739 11.6289ZM217.36 1.71186C221.826 -0.744958 224.072 -0.557173 224.072 2.27436C224.072 7.73417 210.447 14.9812 208.706 10.4472C208.058 8.76025 212.261 4.51786 217.36 1.71186Z" fill="url(#paint8_linear_6412_4727)" fill-opacity="0.7"/>
</g>
<path id="stroke0_6412_4727_ref" d="M1358.58 185.495C1365.09 189.98 1371.59 194.465 1425.24 200.351C1478.88 206.238 1579.47 213.39 1642.04 215.519C1725.17 218.347 1752.45 209.822 1760.79 206.34C1765.13 204.531 1769.01 201.972 1771.61 199.307C1774.22 196.641 1775.27 193.776 1773.59 192.168C1765.82 184.709 1745.85 194.333 1614.44 187.104C1487.48 180.119 1238.08 166.479 1089.15 159.689C940.224 152.899 899.306 153.393 873.797 153.384C839.302 153.371 814.528 154.587 776.882 159.129C727.574 165.079 656.163 172.019 575.735 187.273C504.796 200.728 469.327 221.881 433.882 235.615C353.791 266.648 299.254 293.079 277.846 302.521C193.305 339.808 160.853 357.859 96.5542 367.189C72.1899 370.725 32.4509 358.321 -19.3899 342.102C-52.903 331.616 -86.9109 310.775 -140.178 273.892C-209.63 225.803 -239.333 189.247 -243.782 183.971C-254.254 171.55 -264.956 165.548 -266.804 163.061C-272.259 155.716 -239.69 177.322 -212.8 189.437C-202.975 193.863 -192.425 197.013 -154.458 211.019C-122.156 222.935 -59.9667 241.266 -20.8767 252.314C31.923 267.238 54.7506 269.971 76.0099 274.623C113.959 282.928 185.548 287.524 266.441 290.427C324.035 292.494 394.579 281.123 470.354 268.803C538.527 257.719 575.399 221.306 606.712 186.601C614.4 178.08 615.135 168.089 614.997 161.641C614.859 155.193 611.476 152.065 606.738 149.982C601.999 147.9 596.007 146.958 587.185 147.303C566.953 148.093 516.602 168.341 451.067 200.159C405.147 222.453 380.369 250.182 356.395 273.26C339.337 289.68 331.98 314.682 325.4 345.726C320.117 370.648 322.855 404.552 310.341 445.143C301.112 475.079 271.239 487.141 254.68 494.539C222.805 508.778 182.858 519.113 141.408 527.851C35.6516 550.145 -13.5159 542.099 -54.5605 528.895C-67.9675 524.581 -73.4154 516.974 -79.0567 508.678C-84.4871 500.691 -81.4455 492.538 -75.7497 486.247C-67.2399 476.847 -48.8129 473.182 -28.1313 468.819C10.812 460.604 67.3124 459.97 152.401 468.09C207.545 473.353 283.205 488.589 324.943 496.034C366.681 503.479 371.24 504.628 405.186 506.075C439.133 507.521 502.33 509.23 561.41 506.273C620.491 503.316 673.541 495.64 709.932 488.566C765.322 477.799 798.249 462.112 837.41 442.811C952.186 386.244 976.682 345.854 976.146 336.819C975.509 326.096 935.503 325.31 871.182 328.231C767.2 332.952 687.544 349.265 659.018 356.119C635.338 361.809 617.148 374.03 602.392 384.374C596.44 388.546 595.982 391.7 596.021 397.162C596.118 410.714 629.403 430.605 696.029 452.866C730.631 464.428 771 472.111 817.32 479.647C863.641 487.183 915.753 493.209 956.542 496.557C1024.54 502.138 1090.18 498.366 1172.31 490.593C1272.92 481.071 1339.66 463.255 1360.63 450.203C1382.12 436.834 1397.82 415.621 1411.48 392.68C1423.17 373.044 1414.8 348.349 1399.58 324.542C1392.85 314.005 1374.32 312.138 1361.38 310.309C1348.45 308.48 1338.16 308.16 1297.79 313.521C1257.43 318.882 1187.3 329.933 1130.97 342.62C1074.63 355.307 1034.21 369.295 991.666 388.235C949.125 407.175 905.689 430.644 871.888 454.787C808.71 499.915 786.46 542.2 779.294 569.218C773.058 592.731 784.271 609.278 792.324 619.062C798.438 626.489 825.666 630.696 859.701 636.268C883.057 638.863 950.971 630.9 1047.08 616.09C1084.4 609.786 1098.48 605.94 1121.29 598.035"/>
<linearGradient id="paint8_linear_6412_4727" x1="1008" y1="0" x2="637.064" y2="318.566" gradientUnits="userSpaceOnUse">
<stop stop-color="#1B48C3"/>
<stop offset="1" stop-color="white" stop-opacity="0"/>
</linearGradient>
</defs>
</svg>
