<svg width="25" height="48" viewBox="0 0 25 48" fill="none" xmlns="http://www.w3.org/2000/svg">
<path d="M18.8387 40.1529C18.8351 41.1997 18.5053 42.2231 17.8891 43.0995C17.8891 43.0995 16.8326 44.4504 15.7927 45.3435C14.9662 46.0527 13.4807 47.0431 12.9103 47.4212C12.8637 47.4516 12.8238 47.4783 12.79 47.5L12.6758 47.4217C12.1215 47.04 10.7063 46.0537 9.91701 45.3471C8.91924 44.453 7.9043 43.1005 7.9043 43.1005C7.30859 42.2138 6.99195 41.1899 6.99023 40.1447C6.99023 37.3233 9.3056 34.7089 12.6553 34.556V34.541C12.7059 34.541 12.7564 34.542 12.8066 34.5441C16.3642 34.6487 18.8387 37.297 18.8387 40.1529Z" fill="url(#paint0_linear_6807_2681)"/>
<path fill-rule="evenodd" clip-rule="evenodd" d="M19.4289 29.1647C21.9233 29.1647 23.42 33.8001 23.42 33.8001C23.42 33.8001 28.9077 23.6023 19.4289 18.5034C19.4289 18.5034 21.9039 6.54566 12.5554 0.0386281L12.5 0L12.4446 0.0386281C3.09608 6.54566 5.57109 18.5034 5.57109 18.5034C-3.90766 23.6023 1.58004 33.8001 1.58004 33.8001C1.58004 33.8001 3.07668 29.1647 5.57109 29.1647C6.56885 29.1647 6.56885 31.0189 6.56885 31.0189H18.4311C18.4311 31.0189 18.4311 29.1647 19.4289 29.1647ZM16.2422 16.9325C16.2422 18.8526 14.567 20.4091 12.5006 20.4091C10.4341 20.4091 8.75894 18.8526 8.75894 16.9325C8.75894 15.0125 10.4341 13.456 12.5006 13.456C14.567 13.456 16.2422 15.0125 16.2422 16.9325Z" fill="white"/>
<defs>
<linearGradient id="paint0_linear_6807_2681" x1="7.0466" y1="35.3905" x2="13.857" y2="49.0057" gradientUnits="userSpaceOnUse">
<stop stop-color="#A80D11"/>
<stop offset="0.364819" stop-color="#C2250F"/>
<stop offset="0.682117" stop-color="#F46D1C"/>
<stop offset="1" stop-color="#FFB84C"/>
</linearGradient>
</defs>
</svg>
