<svg width="25" height="48" viewBox="0 0 25 48" fill="none" xmlns="http://www.w3.org/2000/svg">
<path d="M 18.8387 33.6529 C 18.8351 34.6997 18.5053 35.7231 17.8891 36.5995 C 17.8891 36.5995 16.8326 37.9504 15.7927 38.8435 C 14.9662 39.5527 13.4807 40.5431 12.9103 40.9212 C 12.8637 40.9516 12.8238 40.9783 12.79 41.0000 L 12.6758 40.9217 C 12.1215 40.5400 10.7063 39.5537 9.91701 38.8471 C 8.91924 37.9530 7.9043 36.6005 7.9043 36.6005 C 7.30859 35.7138 6.99195 34.6899 6.99023 33.6447 C 6.99023 30.8233 9.3056 28.2089 12.6553 28.0560 V 28.0410 C 12.7059 28.0410 12.7564 28.0420 12.8066 28.0441 C 16.3642 28.1487 18.8387 30.7970 18.8387 33.6529 Z" fill="url(#paint0_linear_6807_2681)"/>
<path fill-rule="evenodd" clip-rule="evenodd" d="M19.4289 29.1647C21.9233 29.1647 23.42 33.8001 23.42 33.8001C23.42 33.8001 28.9077 23.6023 19.4289 18.5034C19.4289 18.5034 21.9039 6.54566 12.5554 0.0386281L12.5 0L12.4446 0.0386281C3.09608 6.54566 5.57109 18.5034 5.57109 18.5034C-3.90766 23.6023 1.58004 33.8001 1.58004 33.8001C1.58004 33.8001 3.07668 29.1647 5.57109 29.1647C6.56885 29.1647 6.56885 31.0189 6.56885 31.0189H18.4311C18.4311 31.0189 18.4311 29.1647 19.4289 29.1647ZM16.2422 16.9325C16.2422 18.8526 14.567 20.4091 12.5006 20.4091C10.4341 20.4091 8.75894 18.8526 8.75894 16.9325C8.75894 15.0125 10.4341 13.456 12.5006 13.456C14.567 13.456 16.2422 15.0125 16.2422 16.9325Z" fill="white"/>
<defs>
<linearGradient id="paint0_linear_6807_2681" x1="7.0466" y1="28.8905" x2="13.857" y2="42.5057" gradientUnits="userSpaceOnUse">
<stop stop-color="#A80D11"/>
<stop offset="0.364819" stop-color="#C2250F"/>
<stop offset="0.682117" stop-color="#F46D1C"/>
<stop offset="1" stop-color="#FFB84C"/>
</linearGradient>
</defs>
</svg>
